<svg width="22" height="20" viewBox="0 0 22 20" fill="none" xmlns="http://www.w3.org/2000/svg">
<path d="M8.25586 16.7949V0.359375C8.49023 0.417969 8.76367 0.544922 9.05664 0.720703L13.5879 3.45508V19.6758C13.3438 19.6172 13.1484 19.5195 12.9141 19.3926L8.25586 16.7949ZM0.707031 18.1035V4.96875C0.707031 4.22656 1.00977 3.69922 1.67383 3.32812L6.08789 0.818359C6.35156 0.662109 6.60547 0.554688 6.82031 0.466797V17.0488L2.93359 19.1582C2.60156 19.334 2.30859 19.4219 2.02539 19.4219C1.24414 19.4219 0.707031 18.9531 0.707031 18.1035ZM15.0137 19.627V3.10352L18.9492 0.916016C19.291 0.730469 19.6133 0.642578 19.916 0.642578C20.7461 0.642578 21.293 1.08203 21.293 1.9707V15.0371C21.293 15.7793 20.9805 16.2969 20.2969 16.6777L15.3555 19.4707C15.248 19.5488 15.1309 19.5977 15.0137 19.627Z" fill="#B98FFF"/>
</svg>
